<svg width="579" height="353" viewBox="0 0 579 353" fill="none" xmlns="http://www.w3.org/2000/svg">
<path d="M371.776 348.676L362.424 344.724L356.009 297.662H270.575L263.622 344.531L255.255 348.731C254.854 348.932 254.533 349.262 254.344 349.669C254.154 350.076 254.107 350.536 254.21 350.973C254.312 351.41 254.559 351.8 254.91 352.079C255.261 352.357 255.696 352.509 256.143 352.509H371.005C371.464 352.509 371.909 352.35 372.264 352.058C372.619 351.767 372.862 351.361 372.953 350.909C373.044 350.458 372.976 349.989 372.762 349.582C372.547 349.175 372.199 348.855 371.776 348.676Z" fill="#E6E6E6"/>
<path d="M523.597 303.923H103.925C101.723 303.918 99.6133 303.037 98.0581 301.472C96.5028 299.907 95.6294 297.787 95.6294 295.577V236.171H531.893V295.577C531.893 297.787 531.019 299.907 529.464 301.472C527.909 303.037 525.799 303.918 523.597 303.923Z" fill="#CCCCCC"/>
<path d="M532.331 264.248H95.2463V10.0613C95.2494 7.39378 96.3064 4.83638 98.1855 2.95017C100.065 1.06396 102.612 0.00298995 105.27 0H522.308C524.965 0.0029882 527.513 1.06396 529.392 2.95016C531.271 4.83637 532.328 7.39377 532.331 10.0613V264.248Z" fill="#3F3D56"/>
<path d="M506.229 18.4483H121.35C119.302 18.4509 117.338 19.2693 115.89 20.724C114.442 22.1787 113.629 24.1507 113.628 26.207V238.041C113.629 240.098 114.442 242.069 115.89 243.524C117.338 244.979 119.302 245.797 121.35 245.8H506.229C508.277 245.796 510.24 244.977 511.688 243.523C513.135 242.069 513.95 240.097 513.952 238.041V26.207C513.95 24.151 513.135 22.1796 511.688 20.7252C510.24 19.2707 508.277 18.4519 506.229 18.4483Z" fill="white"/>
<path d="M189.573 18.4483V245.8H121.35C119.302 245.797 117.338 244.979 115.89 243.524C114.442 242.069 113.629 240.098 113.628 238.041V26.207C113.629 24.1507 114.442 22.1787 115.89 20.724C117.338 19.2693 119.302 18.4509 121.35 18.4483H189.573Z" fill="#F0F0F0"/>
<path d="M133.29 133.299C132.522 133.123 131.725 133.119 130.956 133.286C130.186 133.453 129.462 133.788 128.835 134.266C128.208 134.745 127.693 135.355 127.326 136.055C126.96 136.755 126.75 137.527 126.713 138.316L108.35 143.751L115.952 150.193L132.224 144.045C133.55 144.02 134.821 143.507 135.795 142.604C136.77 141.702 137.381 140.472 137.512 139.147C137.644 137.822 137.286 136.495 136.508 135.418C135.73 134.34 134.585 133.586 133.29 133.299H133.29Z" fill="#FFB6B6"/>
<path d="M59.0931 174.199C57.2777 174.197 55.5221 173.547 54.1394 172.366C52.7567 171.186 51.8368 169.55 51.5436 167.752C51.2505 165.953 51.6033 164.109 52.539 162.547C53.4747 160.985 54.9325 159.808 56.6525 159.225L93.865 146.615L122.892 136L126.454 148.516L100.829 165.466L60.6947 174.03C60.1682 174.142 59.6314 174.199 59.0931 174.199Z" fill="#3183FF"/>
<path d="M82.3802 346.629H87.6047L90.0907 326.399H82.3789L82.3802 346.629Z" fill="#FFB6B6"/>
<path d="M81.0474 344.917L91.3369 344.916H91.3373C93.0764 344.917 94.7442 345.61 95.9739 346.844C97.2036 348.079 97.8946 349.753 97.8947 351.499V351.713L81.0477 351.713L81.0474 344.917Z" fill="#2F2E41"/>
<path d="M42.3197 346.629H47.5442L50.0303 326.399H42.3191L42.3197 346.629Z" fill="#FFB6B6"/>
<path d="M40.9868 344.917L51.2764 344.916H51.2768C53.0159 344.917 54.6837 345.61 55.9134 346.844C57.1431 348.079 57.834 349.753 57.8341 351.499V351.713L40.9871 351.713L40.9868 344.917Z" fill="#2F2E41"/>
<path d="M42.2679 225.284C39.8768 230.875 39.3535 237.093 40.7763 243.008L39.2847 343.359H50.7595L57.184 288.172L67.8384 251.808L79.3451 280.044V338.891L90.4256 338.226L96.392 275.766L89.5733 231.274L42.2679 225.284Z" fill="#2F2E41"/>
<path d="M84.2462 147.209L74.4442 144.214L71.8871 139.081H59.2965L56.1187 144.642C56.1187 144.642 43.3334 149.348 42.9072 172.022C42.4811 194.696 40.7764 231.06 40.7764 231.06L91.1891 238.274L84.2462 147.209Z" fill="#3183FF"/>
<path d="M98.7191 234.214C99.0498 233.496 99.2197 232.715 99.2169 231.924C99.2141 231.133 99.0387 230.353 98.7029 229.638C98.3672 228.923 97.8793 228.29 97.2737 227.785C96.668 227.279 95.9594 226.913 95.1976 226.712L93.7199 207.551L85.8621 213.677L88.47 230.933C88.2188 232.24 88.454 233.594 89.131 234.739C89.8079 235.883 90.8796 236.739 92.143 237.143C93.4063 237.548 94.7735 237.473 95.9856 236.933C97.1976 236.393 98.1702 235.425 98.7192 234.214H98.7191Z" fill="#FFB6B6"/>
<path d="M85.3121 224.338L74.1235 195.653V154.464C74.1235 152.502 74.8706 150.614 76.2119 149.187C77.5531 147.76 79.387 146.902 81.3381 146.788C83.2891 146.675 85.2098 147.314 86.7067 148.575C88.2036 149.836 89.1635 151.624 89.39 153.573L93.9403 192.734L98.2488 223.442L85.3121 224.338Z" fill="#3183FF"/>
<path d="M68.007 132.421C74.9559 132.421 80.5891 126.766 80.5891 119.791C80.5891 112.815 74.9559 107.161 68.007 107.161C61.058 107.161 55.4248 112.815 55.4248 119.791C55.4248 126.766 61.058 132.421 68.007 132.421Z" fill="#FFB9B9"/>
<path d="M68.8311 115.952C68.2424 116.71 67.4354 117.395 67.3057 118.348C67.2097 119.054 67.5169 119.751 67.5462 120.463C67.5486 121.182 67.2779 121.874 66.7895 122.399C66.301 122.924 65.6314 123.243 64.9172 123.289C64.4197 122.661 63.7009 122.248 62.9091 122.137C62.515 122.092 62.1171 122.175 61.7737 122.374C61.4303 122.574 61.1596 122.878 61.0014 123.243C60.6278 124.303 61.4926 125.379 61.6317 126.494C61.6502 127.319 61.5172 128.14 61.2395 128.917C60.9206 130.197 60.8355 131.551 60.2761 132.744C59.7168 133.938 58.4731 134.964 57.1856 134.701C56.1031 134.479 55.3705 133.426 55.0677 132.36C54.765 131.293 54.7786 130.162 54.5594 129.075C53.8475 125.542 50.8185 122.925 49.6302 119.524C48.1074 115.167 49.9367 110.182 53.0894 106.819C54.364 105.346 56.0279 104.264 57.8888 103.7C59.8534 103.198 61.9306 103.559 63.9466 103.344C66.1026 103.114 68.1291 102.235 70.2243 101.676C72.3196 101.117 74.66 100.906 76.5645 101.946C77.8929 102.671 78.855 103.922 80.0926 104.794C81.5115 105.786 83.2318 106.248 84.9547 106.1L82.8972 107.003C83.6848 107.729 84.6359 108.252 85.669 108.527C84.8281 109.196 83.7881 109.562 82.7152 109.568C82.939 109.973 83.243 110.327 83.6086 110.609C83.9741 110.891 84.3934 111.095 84.8405 111.208C83.2783 111.945 81.6197 112.699 79.9018 112.533C79.0603 112.451 78.256 112.151 77.4247 111.997C75.653 111.667 73.8334 112.009 72.0637 112.349C71.1345 112.528 69.9939 112.7 69.5246 113.597C69.1338 114.344 69.4327 115.176 68.8311 115.952Z" fill="#2F2E41"/>
<path d="M151.6 152.274C162.686 152.274 171.673 143.252 171.673 132.124C171.673 120.996 162.686 111.975 151.6 111.975C140.514 111.975 131.528 120.996 131.528 132.124C131.528 143.252 140.514 152.274 151.6 152.274Z" fill="#3183FF"/>
<path d="M163.644 132.124H152.805V121.243H150.396V132.124H139.556V134.542H150.396V145.423H152.805V134.542H163.644V132.124Z" fill="white"/>
<path d="M322.53 45.0395C321.911 45.0402 321.318 45.2873 320.88 45.7267C320.442 46.1661 320.196 46.7619 320.195 47.3832V86.626C320.196 87.2474 320.442 87.8432 320.88 88.2826C321.318 88.7221 321.911 88.9693 322.53 88.97H480.126C480.745 88.9692 481.338 88.7221 481.776 88.2826C482.214 87.8432 482.46 87.2474 482.461 86.626V47.3832C482.46 46.7619 482.214 46.1661 481.776 45.7267C481.338 45.2873 480.745 45.0402 480.126 45.0395H322.53Z" fill="white"/>
<path d="M322.53 45.0395C321.911 45.0402 321.318 45.2873 320.88 45.7267C320.442 46.1661 320.196 46.7619 320.195 47.3832V86.626C320.196 87.2474 320.442 87.8432 320.88 88.2826C321.318 88.7221 321.911 88.9693 322.53 88.97H480.126C480.745 88.9692 481.338 88.7221 481.776 88.2826C482.214 87.8432 482.46 87.2474 482.461 86.626V47.3832C482.46 46.7619 482.214 46.1661 481.776 45.7267C481.338 45.2873 480.745 45.0402 480.126 45.0395H322.53Z" fill="#E6E6E6"/>
<path d="M322.822 86.3332H479.834V47.6763H322.822V86.3332Z" fill="white"/>
<path d="M340.674 58.8018C340.132 58.8018 339.612 59.0178 339.229 59.4024C338.846 59.787 338.631 60.3086 338.631 60.8525C338.631 61.3964 338.846 61.918 339.229 62.3026C339.612 62.6872 340.132 62.9033 340.674 62.9033H461.977C462.245 62.9034 462.511 62.8505 462.759 62.7475C463.007 62.6445 463.232 62.4936 463.422 62.3032C463.611 62.1129 463.762 61.8869 463.865 61.6381C463.968 61.3894 464.021 61.1227 464.021 60.8534C464.021 60.5841 463.968 60.3174 463.865 60.0686C463.763 59.8197 463.612 59.5936 463.423 59.403C463.233 59.2125 463.008 59.0614 462.76 58.9582C462.512 58.855 462.247 58.8019 461.979 58.8018H340.674Z" fill="#E4E4E4"/>
<path d="M340.674 71.1062C340.132 71.1072 339.614 71.3237 339.231 71.7082C338.849 72.0926 338.634 72.6137 338.634 73.157C338.634 73.7002 338.849 74.2213 339.231 74.6058C339.614 74.9903 340.132 75.2067 340.674 75.2077H461.977C462.519 75.2089 463.039 74.994 463.423 74.6103C463.807 74.2266 464.023 73.7054 464.024 73.1615C464.025 72.6177 463.811 72.0956 463.429 71.7101C463.047 71.3247 462.528 71.1074 461.986 71.1062H340.674Z" fill="#E4E4E4"/>
<path d="M212.938 111.626C212.319 111.626 211.726 111.874 211.288 112.313C210.85 112.752 210.604 113.348 210.604 113.969V153.212C210.604 153.834 210.85 154.429 211.288 154.869C211.726 155.308 212.319 155.555 212.938 155.556H370.534C371.153 155.555 371.747 155.308 372.184 154.869C372.622 154.429 372.868 153.834 372.869 153.212V113.969C372.868 113.348 372.622 112.752 372.184 112.313C371.747 111.874 371.153 111.626 370.534 111.626H212.938Z" fill="white"/>
<path d="M212.938 111.626C212.319 111.626 211.726 111.874 211.288 112.313C210.85 112.752 210.604 113.348 210.604 113.969V153.212C210.604 153.834 210.85 154.429 211.288 154.869C211.726 155.308 212.319 155.555 212.938 155.556H370.534C371.153 155.555 371.747 155.308 372.184 154.869C372.622 154.429 372.868 153.834 372.869 153.212V113.969C372.868 113.348 372.622 112.752 372.184 112.313C371.747 111.874 371.153 111.626 370.534 111.626H212.938Z" fill="#E6E6E6"/>
<path d="M213.23 152.919H370.242V114.263H213.23V152.919Z" fill="white"/>
<path d="M231.082 125.388C230.54 125.388 230.021 125.604 229.637 125.989C229.254 126.373 229.039 126.895 229.039 127.439C229.039 127.983 229.254 128.504 229.637 128.889C230.021 129.273 230.54 129.489 231.082 129.489H352.385C352.653 129.49 352.919 129.437 353.167 129.334C353.415 129.231 353.64 129.08 353.83 128.889C354.02 128.699 354.17 128.473 354.273 128.224C354.376 127.976 354.429 127.709 354.429 127.44C354.429 127.17 354.376 126.904 354.274 126.655C354.171 126.406 354.021 126.18 353.831 125.989C353.642 125.799 353.416 125.648 353.169 125.544C352.921 125.441 352.655 125.388 352.387 125.388H231.082Z" fill="#E4E4E4"/>
<path d="M231.082 137.692C230.541 137.693 230.022 137.91 229.64 138.294C229.257 138.679 229.043 139.2 229.043 139.743C229.043 140.286 229.257 140.807 229.64 141.192C230.022 141.576 230.541 141.793 231.082 141.794H352.385C352.927 141.795 353.447 141.58 353.831 141.196C354.215 140.813 354.431 140.292 354.433 139.748C354.434 139.204 354.22 138.682 353.837 138.296C353.455 137.911 352.936 137.694 352.394 137.692H231.082Z" fill="#E4E4E4"/>
<path d="M405.036 216.95C405.738 216.872 406.414 216.641 407.017 216.272C407.621 215.904 408.136 215.407 408.527 214.817C408.919 214.227 409.176 213.558 409.282 212.858C409.388 212.157 409.34 211.441 409.14 210.761L423.107 200.747L414.784 197.529L402.797 207.533C401.681 207.945 400.754 208.753 400.193 209.805C399.631 210.857 399.474 212.079 399.75 213.239C400.026 214.4 400.716 215.419 401.69 216.103C402.665 216.787 403.855 217.088 405.036 216.95Z" fill="#FFB7B7"/>
<path d="M412.79 210.354L408.156 202.41L408.255 202.297L426.949 180.933L441.464 156.085L454.068 157.697L454.254 161.522L454.217 161.579L434.192 191.797L434.17 191.815L412.79 210.354Z" fill="#3F3D56"/>
<path d="M474.556 344.777L467.429 344.777L464.037 317.178L474.557 317.179L474.556 344.777Z" fill="#FFB7B7"/>
<path d="M476.374 351.713L453.391 351.712V351.421C453.391 349.039 454.333 346.755 456.011 345.071C457.688 343.387 459.964 342.441 462.336 342.441H462.337L476.374 342.441L476.374 351.713Z" fill="#2F2E41"/>
<path d="M413.211 344.543L406.278 342.882L409.364 315.247L419.597 317.699L413.211 344.543Z" fill="#FFB7B7"/>
<path d="M413.374 351.713L391.019 346.355L391.087 346.071C391.638 343.755 393.083 341.753 395.104 340.506C397.126 339.259 399.558 338.869 401.865 339.422L401.866 339.422L415.52 342.695L413.374 351.713Z" fill="#2F2E41"/>
<path d="M440.913 143.467V131.423C440.913 127.142 442.607 123.037 445.622 120.011C448.637 116.984 452.726 115.284 456.99 115.284C461.254 115.284 465.344 116.984 468.359 120.011C471.374 123.037 473.068 127.142 473.068 131.423V143.467C473.067 144.042 472.839 144.593 472.435 144.999C472.03 145.406 471.481 145.634 470.908 145.635H443.073C442.5 145.634 441.951 145.406 441.546 144.999C441.141 144.593 440.913 144.042 440.913 143.467Z" fill="#2F2E41"/>
<path d="M453.022 145.452C459.532 145.452 464.81 140.154 464.81 133.619C464.81 127.084 459.532 121.787 453.022 121.787C446.512 121.787 441.235 127.084 441.235 133.619C441.235 140.154 446.512 145.452 453.022 145.452Z" fill="#FFB7B7"/>
<path d="M437.109 132.386C437.113 129.002 438.454 125.756 440.838 123.363C443.223 120.97 446.455 119.623 449.827 119.62H452.227C455.599 119.623 458.832 120.97 461.216 123.363C463.6 125.756 464.941 129.002 464.945 132.386V132.627H459.874L458.144 127.765L457.798 132.627H455.177L454.305 130.174L454.13 132.627H437.109V132.386Z" fill="#2F2E41"/>
<path d="M459.898 196.071L429.885 194.924L428.208 175.214C426.914 171.606 426.893 168.509 428.145 166.008C429.223 163.953 431.033 162.383 433.214 161.61L439.781 153.648C440.626 152.624 441.687 151.802 442.887 151.24C444.088 150.679 445.397 150.392 446.722 150.401L463.784 150.518C464.195 150.269 466.69 148.997 471.61 151.138C476.947 153.46 475.708 161.526 475.694 161.607L475.682 161.683L475.624 161.733L464.274 171.327L459.898 196.071Z" fill="#3F3D56"/>
<path d="M430.124 192.807L415.928 218.789L405.165 336.995L417.326 340.723L438.851 248.255L463.833 338.1L478.41 338.466L468.485 234.785L459.811 194.643L430.124 192.807Z" fill="#2F2E41"/>
<path d="M338.245 173.547C337.656 173.356 337.015 173.408 336.464 173.69C335.913 173.973 335.495 174.463 335.304 175.054L323.249 212.384C323.059 212.976 323.11 213.619 323.391 214.172C323.673 214.726 324.161 215.145 324.75 215.337L474.665 264.121C475.255 264.312 475.895 264.26 476.446 263.978C476.998 263.695 477.415 263.205 477.606 262.614L489.662 225.284C489.852 224.692 489.801 224.049 489.519 223.496C489.238 222.942 488.749 222.524 488.161 222.331L338.245 173.547Z" fill="white"/>
<path d="M338.245 173.547C337.656 173.356 337.015 173.408 336.464 173.69C335.913 173.973 335.495 174.463 335.304 175.054L323.249 212.384C323.059 212.976 323.11 213.619 323.391 214.172C323.673 214.726 324.161 215.145 324.75 215.337L474.665 264.121C475.255 264.312 475.895 264.26 476.446 263.978C476.998 263.695 477.415 263.205 477.606 262.614L489.662 225.284C489.852 224.692 489.801 224.049 489.519 223.496C489.238 222.942 488.749 222.524 488.161 222.331L338.245 173.547Z" fill="#E6E6E6"/>
<path d="M325.837 212.919L475.198 261.522L487.073 224.749L337.712 176.146L325.837 212.919Z" fill="white"/>
<path d="M351.277 192.255C350.761 192.088 350.201 192.133 349.718 192.38C349.236 192.627 348.871 193.057 348.704 193.574C348.537 194.091 348.582 194.654 348.828 195.138C349.074 195.622 349.501 195.989 350.017 196.157L465.408 233.706C465.663 233.79 465.933 233.822 466.2 233.801C466.468 233.78 466.729 233.706 466.968 233.584C467.207 233.462 467.42 233.293 467.595 233.088C467.769 232.884 467.901 232.646 467.984 232.39C468.067 232.133 468.099 231.863 468.078 231.595C468.057 231.326 467.983 231.064 467.861 230.824C467.739 230.584 467.571 230.371 467.366 230.196C467.162 230.021 466.925 229.888 466.67 229.805L466.668 229.805L351.277 192.255Z" fill="#3183FF"/>
<path d="M347.497 203.96C346.982 203.794 346.422 203.839 345.94 204.086C345.458 204.334 345.094 204.763 344.927 205.28C344.76 205.796 344.805 206.358 345.05 206.843C345.296 207.327 345.722 207.693 346.237 207.862L461.628 245.411C462.143 245.58 462.704 245.537 463.187 245.29C463.67 245.044 464.036 244.616 464.205 244.099C464.373 243.582 464.33 243.019 464.084 242.534C463.839 242.049 463.412 241.681 462.897 241.512L462.888 241.51L347.497 203.96Z" fill="#3183FF"/>
<path d="M468.053 234.869C468.578 234.396 468.994 233.813 469.27 233.16C469.547 232.508 469.678 231.803 469.654 231.095C469.629 230.386 469.451 229.692 469.13 229.06C468.81 228.429 468.355 227.875 467.798 227.439L473.341 211.132L464.708 213.384L460.768 228.524C460.101 229.511 459.817 230.71 459.97 231.893C460.124 233.077 460.705 234.162 461.603 234.944C462.501 235.727 463.653 236.151 464.842 236.137C466.031 236.123 467.173 235.672 468.053 234.869V234.869Z" fill="#FFB7B7"/>
<path d="M470.528 224.974L462.153 221.226L464.967 192.78L462.348 164.096L473.529 158.037L475.899 161.037L475.902 161.105L477.158 197.376L477.151 197.404L470.528 224.974Z" fill="#3F3D56"/>
</svg>
